PathFileType	4	(X/Y/Z)	./resultDataOpenSim/trcMotMarkerGrf/sub09/qtm-03-05.trc
DataRate	CameraRate	NumFrames	NumMarkers	Units	OrigDataRate	OrigDataStartFrame	OrigNumFrames
250.000000	250.000000	9	24	m	250.000000	175	466
Frame#	Time	L.Toe.Tip			R.Toe.Tip			L.Ankle.Lat			R.Ankle.Lat			L.Ankle.Med			R.Ankle.Med			L.Heel			R.Heel			L.Knee.Lat			R.Knee.Lat			L.Knee.Med			R.Knee.Med			L.Thigh.Upper			R.Thigh.Upper			L.ASIS			R.ASIS			V.Sacral			L.Acromium			R.Acromium			C7			L.Elbow			R.Elbow			L.Wrist.Lat			R.Wrist.Lat
		X1	Y1	Z1	X2	Y2	Z2	X3	Y3	Z3	X4	Y4	Z4	X5	Y5	Z5	X6	Y6	Z6	X7	Y7	Z7	X8	Y8	Z8	X9	Y9	Z9	X10	Y10	Z10	X11	Y11	Z11	X12	Y12	Z12	X13	Y13	Z13	X14	Y14	Z14	X15	Y15	Z15	X16	Y16	Z16	X17	Y17	Z17	X18	Y18	Z18	X19	Y19	Z19	X20	Y20	Z20	X21	Y21	Z21	X22	Y22	Z22	X23	Y23	Z23	X24	Y24	Z24

175	0.696	0.10441678	-0.0025729832	-0.0025103929	-0.70582419	0.044204466	0.072251878	-0.043518257	0.023653833	-0.050325135	-0.80742534	0.14725023	0.11737139	-0.028144155	0.046563464	0.045275498	-0.76492524	0.16482987	0.028857781	-0.11436486	-0.013919544	-0.00658066	-0.86586366	0.171716	0.057687155	-0.079209857	0.43987217	-0.095477248	-0.4422676	0.42719937	0.19047981	-0.093086987	0.43337821	0.029400408	-0.44435566	0.4134675	0.066028647	-0.26209764	0.80930011	-0.14313152	-0.35052289	0.81164115	0.22101531	-0.20522415	0.89472473	-0.070503513	-0.22822063	0.88919119	0.17062068	-0.39060478	0.94809602	0.024350427	-0.26589838	1.3483854	-0.13584508	-0.27755997	1.3579246	0.19660422	-0.33636518	1.3991952	0.029931799	-0.42693077	1.0222566	-0.18265389	-0.38091025	0.99835866	0.27910555	-0.36133357	0.77974129	-0.25259129	-0.16670587	0.82371752	0.26559295
176	0.7	0.10500346	-0.004556836	-0.001108731	-0.70473526	0.044968633	0.07263514	-0.042219676	0.023442807	-0.050009451	-0.80212052	0.15242378	0.11852377	-0.027555349	0.04609228	0.045806032	-0.75818485	0.16833787	0.030542666	-0.11385818	-0.013851793	-0.0069615676	-0.85887818	0.17888261	0.058664785	-0.069804512	0.44068885	-0.095680157	-0.43213122	0.42566278	0.19196816	-0.084823935	0.4352921	0.029014765	-0.43317506	0.41059416	0.067533748	-0.25460149	0.8103131	-0.14378121	-0.34254789	0.81023388	0.22088976	-0.1979367	0.89510157	-0.070748981	-0.22065579	0.8883118	0.17012929	-0.38175001	0.94736856	0.023311622	-0.25858929	1.3477212	-0.13614669	-0.27094742	1.3576933	0.19627501	-0.32940462	1.3985425	0.029443068	-0.41902865	1.0213053	-0.18301371	-0.37407712	0.99819641	0.27827883	-0.35300498	0.77893148	-0.25301675	-0.16188157	0.82149567	0.26573255
177	0.704	0.10554827	-0.0058708793	0.0002392984	-0.70314566	0.046034406	0.073213096	-0.04118936	0.023320832	-0.049542561	-0.79627219	0.15763996	0.11961087	-0.027188609	0.045672637	0.046465651	-0.75121838	0.17230234	0.032028984	-0.1134758	-0.013590279	-0.0071987151	-0.85131526	0.18600309	0.05952883	-0.060773753	0.44115122	-0.096056332	-0.42169008	0.42412414	0.19349475	-0.076253168	0.43708785	0.028851929	-0.42175472	0.40758042	0.069005935	-0.24740572	0.81134779	-0.14456056	-0.33492577	0.8089735	0.22088858	-0.19092753	0.89551218	-0.071117937	-0.213161	0.88750892	0.16959345	-0.37341441	0.94674003	0.022867191	-0.25119699	1.3471478	-0.1364218	-0.26425223	1.3575457	0.19594025	-0.32245987	1.3979411	0.028987952	-0.41103565	1.0204545	-0.18333591	-0.36718507	0.99820117	0.27741322	-0.34453962	0.77821548	-0.25341064	-0.15718131	0.81935096	0.26587026
178	0.708	0.10618101	-0.0067707006	0.0013216701	-0.70108286	0.047367411	0.073869921	-0.040275385	0.023310647	-0.049029849	-0.78985811	0.16290462	0.12063725	-0.0267337	0.045308906	0.047085832	-0.74397364	0.17653877	0.033292435	-0.11305516	-0.013215456	-0.0073102887	-0.84320552	0.19306509	0.060197425	-0.05217553	0.44130679	-0.096572873	-0.41087358	0.42256211	0.19512505	-0.067531282	0.43868927	0.028833745	-0.41005389	0.40449747	0.070466871	-0.24052635	0.81232137	-0.14542609	-0.32752254	0.80780258	0.22094142	-0.18418035	0.89594688	-0.071585365	-0.20574036	0.88676954	0.16900869	-0.3660758	0.94654508	0.023533287	-0.24375826	1.3466605	-0.13667685	-0.2574602	1.3574666	0.19559721	-0.31551507	1.3974037	0.028576626	-0.40298043	1.0196915	-0.18360878	-0.36018702	0.99835016	0.27648782	-0.33592645	0.77759448	-0.25378095	-0.15261906	0.81728648	0.26599581
179	0.712	0.10691231	-0.0074710824	0.0019714341	-0.69863967	0.048874253	0.07456122	-0.039396154	0.023357787	-0.048563056	-0.78288256	0.16823435	0.12161777	-0.026048071	0.044977721	0.047589414	-0.73626274	0.18063952	0.034514336	-0.11255448	-0.012868783	-0.0073241851	-0.83452519	0.20008719	0.060643888	-0.044022119	0.44116054	-0.097112783	-0.39971965	0.42096409	0.19681457	-0.058925426	0.44002789	0.02880598	-0.3980193	0.40145433	0.07187223	-0.23397957	0.81317124	-0.14632654	-0.32005959	0.8066238	0.22092071	-0.17758229	0.89641122	-0.072085742	-0.19839851	0.88608921	0.1683793	-0.35955656	0.94681014	0.025077809	-0.23633416	1.3462534	-0.13690756	-0.25057537	1.3574469	0.19525334	-0.30856407	1.3969289	0.028206209	-0.3948803	1.0189969	-0.18383817	-0.35316782	0.99862878	0.27553942	-0.32719439	0.77705829	-0.25413185	-0.14819864	0.81530191	0.26610063
180	0.716	0.10764413	-0.0080695439	0.0021754991	-0.69589811	0.05047982	0.075300732	-0.03856088	0.023371297	-0.048199809	-0.77535868	0.17362481	0.12256329	-0.025211109	0.044654164	0.047974652	-0.72798647	0.18437154	0.035859462	-0.11205717	-0.012623611	-0.0072864701	-0.8252721	0.20707505	0.060973715	-0.036349521	0.44064055	-0.097503923	-0.38843039	0.41936027	0.19837922	-0.050655401	0.44104022	0.028658425	-0.38556581	0.39846624	0.073130197	-0.22772406	0.81386271	-0.14722893	-0.31237979	0.80538541	0.22076252	-0.17101585	0.89691025	-0.072556938	-0.19114601	0.88547147	0.167712	-0.35325058	0.94721628	0.026834776	-0.22894798	1.3459267	-0.13711721	-0.24360116	1.3574789	0.19491945	-0.30160643	1.3965138	0.02786646	-0.38674233	1.0183568	-0.18404063	-0.34632274	0.9990329	0.27465816	-0.31836357	0.77659129	-0.25446765	-0.14386954	0.81340717	0.26619245
181	0.72	0.10824325	-0.0085755198	0.0021120071	-0.69288491	0.052148073	0.076114348	-0.037845348	0.02328732	-0.047949711	-0.76729477	0.17903548	0.12348727	-0.024422121	0.044330677	0.04827178	-0.71916452	0.18778611	0.037336522	-0.11167209	-0.012474588	-0.0072421204	-0.81552555	0.21399127	0.06138836	-0.029240782	0.43970408	-0.09764699	-0.37715243	0.41778409	0.19967816	-0.042813034	0.44167418	0.02837929	-0.37264759	0.3954616	0.074137573	-0.22162956	0.8143939	-0.14812034	-0.30441163	0.80407299	0.22042582	-0.16442061	0.89744582	-0.072968214	-0.18399355	0.8849216	0.16701055	-0.34663649	0.94743039	0.028234045	-0.22157689	1.3456812	-0.13731948	-0.23654096	1.3575518	0.19460399	-0.29463972	1.3961658	0.02755097	-0.37857228	1.0177658	-0.18423308	-0.3397265	0.99953809	0.27388645	-0.30942711	0.77618465	-0.25478958	-0.13955214	0.81161816	0.26629481
182	0.724	0.10863486	-0.0089849117	0.0020380506	-0.68956973	0.053868246	0.077010488	-0.037327278	0.023104762	-0.047781907	-0.75868974	0.18440182	0.12439904	-0.023843518	0.04401225	0.048523358	-0.70984259	0.19103564	0.038855533	-0.11145053	-0.012387672	-0.0072184343	-0.80537258	0.22077676	0.062028857	-0.022796552	0.43847833	-0.097644725	-0.36584435	0.41623725	0.20072685	-0.035409754	0.44189209	0.028018024	-0.35939424	0.39245009	0.07487454	-0.21552574	0.81478123	-0.14898602	-0.29594129	0.80267434	0.21975385	-0.15778768	0.89801773	-0.073316631	-0.17693411	0.88444068	0.16628566	-0.33960643	0.94738949	0.029103111	-0.21419752	1.3455116	-0.13752309	-0.22940552	1.3576565	0.19431486	-0.28766245	1.3959105	0.027257995	-0.37038175	1.0172242	-0.18442524	-0.33328299	1.0001036	0.27319666	-0.30037795	0.77583402	-0.25509073	-0.13521168	0.8099389	0.26642189
183	0.728	0.10883763	-0.0093117465	0.0021224014	-0.68589761	0.055634621	0.077975086	-0.037023442	0.022873616	-0.047650289	-0.74954812	0.18965247	0.1252982	-0.023513522	0.043706297	0.048769499	-0.70007751	0.19422836	0.040309546	-0.1113705	-0.012340009	-0.0072089731	-0.79483014	0.22738711	0.062897469	-0.017063018	0.43721485	-0.097732839	-0.35438507	0.41470164	0.20161121	-0.028460955	0.44166909	0.027616434	-0.34609541	0.38958577	0.075437193	-0.2093055	0.81504458	-0.14977924	-0.28678436	0.80124278	0.21856395	-0.15112886	0.89862527	-0.073610283	-0.16994799	0.88403008	0.16556484	-0.33235949	0.94723625	0.029574706	-0.206808	1.3454115	-0.13772553	-0.22220524	1.357789	0.19405688	-0.28068436	1.3957827	0.026987779	-0.36219203	1.016734	-0.18461302	-0.32688918	1.0007035	0.27255905	-0.29122207	0.77553337	-0.25535877	-0.13086727	0.80835887	0.26656725
